# xmcd CD database file
#
# Track frame offsets:
#	150
#	13609
#	42294
#	57391
#	67680
#	86452
#	97932
#	122702
#	142705
#	161719
#
# Disc length: 2583 seconds
#
# Revision: 0
# Processed by: cddbd v1.5.1PL2 Copyright (c) Steve Scherf et al.
# Submitted via: CDex 1.51
#
DISCID=730a150a
DTITLE=Maiko Yano - Everything Must Change
DYEAR=2004
DGENRE=Jazz
TTITLE0=You make me feel so young
TTITLE1=Everything must change
TTITLE2=Dream a little dream of me
TTITLE3=You'd be so nice to come home to
TTITLE4=Tennessee Waltz
TTITLE5=It's all right with me
TTITLE6=But beautiful
TTITLE7=The shadow of your smile
TTITLE8=The party's over
TTITLE9=Slow hot wind
EXTD=YEAR: 2004
EXTT0=
EXTT1=
EXTT2=
EXTT3=
EXTT4=
EXTT5=
EXTT6=
EXTT7=
EXTT8=
EXTT9=
PLAYORDER=
